<?xml version="1.0" encoding="UTF-8" standalone="no"?>
<!-- Generator: Adobe Illustrator 25.2.0, SVG Export Plug-In . SVG Version: 6.00 Build 0)  -->

<svg
   version="1.1"
   id="Layer_1"
   x="0px"
   y="0px"
   viewBox="0 0 721 475.1"
   style="enable-background:new 0 0 721 475.1;"
   xml:space="preserve"
   sodipodi:docname="ruuvi-gateway.svg"
   inkscape:version="1.3.2 (091e20e, 2023-11-25)"
   xmlns:inkscape="http://www.inkscape.org/namespaces/inkscape"
   xmlns:sodipodi="http://sodipodi.sourceforge.net/DTD/sodipodi-0.dtd"
   xmlns="http://www.w3.org/2000/svg"
   xmlns:svg="http://www.w3.org/2000/svg"><defs
   id="defs9" /><sodipodi:namedview
   id="namedview9"
   pagecolor="#ffffff"
   bordercolor="#000000"
   borderopacity="0.25"
   inkscape:showpageshadow="2"
   inkscape:pageopacity="0.0"
   inkscape:pagecheckerboard="0"
   inkscape:deskcolor="#d1d1d1"
   inkscape:zoom="0.70249294"
   inkscape:cx="360.85772"
   inkscape:cy="237.01306"
   inkscape:window-width="1512"
   inkscape:window-height="916"
   inkscape:window-x="0"
   inkscape:window-y="38"
   inkscape:window-maximized="0"
   inkscape:current-layer="Layer_1" />
<style
   type="text/css"
   id="style1">
	.st0{opacity:0.5;}
	.st1{fill:#7FD8CE;}
	.st2{opacity:0.5;fill:#7FD8CE;enable-background:new    ;}
</style>


<rect
   x="719.8"
   y="53.3"
   class="st2"
   width="1.2"
   height="27"
   id="rect9" />
<path
   style="fill:#000000;stroke-width:1.42666"
   d="m 112.36346,359.17815 c -4.55269,-3.72046 -5.19769,-7.77136 -3.84635,-24.15719 2.51586,-30.5065 19.6705,-49.25399 48.43783,-52.93537 16.95484,-2.16974 108.71717,-5.82619 146.21378,-5.82619 h 33.48678 v -10.90606 -10.90605 h 4.89891 c 3.96578,0 4.89891,-0.55396 4.89891,-2.90828 0,-2.87683 -0.93313,-2.90829 -86.26164,-2.90829 h -86.26162 l 0.95985,-8.81402 c 3.13282,-28.76771 16.44931,-58.55789 37.89317,-84.77038 12.00382,-14.67322 37.27248,-34.21977 56.01953,-43.33387 4.98629,-2.42413 9.06597,-4.99037 9.06597,-5.70275 0,-0.71238 -1.97101,-4.62315 -4.38002,-8.690615 -3.10932,-5.249866 -3.9458,-7.846489 -2.88331,-8.950318 1.06249,-1.103829 2.63776,0.440738 5.42978,5.323989 7.09808,12.414484 5.84238,11.761154 15.95094,8.299064 43.22952,-14.805695 93.41911,-14.652248 134.07564,0.40993 3.36856,1.24797 6.55055,2.26903 7.07111,2.26903 0.52054,0 3.0963,-3.85162 5.72392,-8.559152 2.91839,-5.228448 5.48275,-8.277986 6.58985,-7.836621 1.32961,0.530063 0.69016,2.760202 -2.40069,8.37262 -2.31718,4.207543 -4.21305,8.298563 -4.21305,9.091133 0,0.79258 4.05884,3.51694 9.01962,6.05413 26.23476,13.41778 54.19871,38.36677 69.43587,61.94957 12.51326,19.36698 21.16432,43.48475 24.38488,67.9811 l 0.90811,6.90716 h -86.16662 c -85.23345,0 -86.16659,0.0315 -86.16659,2.90829 0,2.35432 0.93314,2.90828 4.89891,2.90828 h 4.89891 v 10.68098 10.681 l 54.23792,0.90216 c 55.43415,0.92205 100.62301,2.88212 122.49579,5.31326 28.42386,3.15927 45.94443,20.24713 50.25535,49.01417 2.16474,14.4455 0.96855,23.54178 -3.63705,27.65747 l -3.75704,3.35738 H 357.76153 c -238.84237,0 -241.92346,-0.0361 -245.39807,-2.87556 z m 234.08986,-124.0387 v -9.12885 l -30.86695,-54.48982 c -16.97682,-29.9694 -31.78575,-55.95056 -32.90872,-57.73592 l -2.0418,-3.2461 -8.03215,3.68822 c -26.88686,12.34598 -53.88504,36.3254 -71.63571,63.6259 -9.92685,15.26745 -19.30561,40.93675 -21.74248,59.50825 l -0.90632,6.90717 h 84.06706 84.06707 z m 190.61812,4.03935 c -2.00754,-19.93407 -12.35205,-47.06233 -25.45367,-66.75182 -8.8775,-13.34134 -29.58393,-34.29385 -42.75083,-43.2589 -13.17158,-8.96822 -32.93337,-19.18934 -34.21826,-17.69825 -0.56811,0.65929 -15.29066,26.49495 -32.7168,57.41259 l -31.68386,56.21389 v 9.59743 9.59744 l 83.63138,-0.37497 83.63138,-0.37498 z M 351.73872,213.02798 c 0.43539,-0.38534 -58.09012,-104.08801 -59.7431,-105.86013 -1.50204,-1.61033 -5.72891,0.34105 -5.72891,2.64481 0,1.48187 46.59981,85.13342 56.91775,102.17332 1.51912,2.50881 2.79211,3.09933 5.09635,2.36409 1.68928,-0.539 3.24534,-1.13395 3.45791,-1.32209 z m 49.14912,-50.05725 c 16.25073,-28.7181 29.54678,-52.85323 29.54678,-53.63361 0,-2.16149 -5.32143,-3.13721 -6.78691,-1.24441 -1.72866,2.23274 -57.63418,101.13427 -58.51391,103.51597 -0.58602,1.58657 0.98365,2.59388 5.31081,3.40812 0.49307,0.0928 14.19252,-23.32796 30.44323,-52.04607 z m -11.49413,-2.90868 c 16.41386,-29.02301 29.84341,-53.37529 29.84341,-54.11619 0,-2.01747 -5.28126,-3.73616 -21.2605,-6.918876 -20.48562,-4.080282 -41.03931,-5.183921 -59.22159,-3.179926 -19.24704,2.121358 -39.84192,6.998502 -40.82818,9.668682 -0.878,2.377 58.42576,108.25199 60.3238,107.69609 0.71482,-0.20936 14.7292,-24.12675 31.14306,-53.14978 z"
   id="path1" /></svg>
